<svg width="301" height="86" viewBox="0 0 301 86" fill="none" xmlns="http://www.w3.org/2000/svg">
<path d="M82.9686 43.4121V11.8397H95.2386C97.5974 11.8397 99.607 12.297 101.267 13.2117C102.928 14.1161 104.193 15.3751 105.064 16.9887C105.944 18.592 106.385 20.4419 106.385 22.5385C106.385 24.6351 105.939 26.4851 105.048 28.0884C104.158 29.6917 102.867 30.9404 101.176 31.8345C99.4956 32.7287 97.4607 33.1757 95.0715 33.1757H87.2509V27.8263H94.0085C95.274 27.8263 96.3167 27.6053 97.1368 27.1634C97.9669 26.7112 98.5845 26.0894 98.9894 25.298C99.4045 24.4964 99.612 23.5766 99.612 22.5385C99.612 21.4902 99.4045 20.5755 98.9894 19.7944C98.5845 19.0031 97.9669 18.3916 97.1368 17.9599C96.3066 17.518 95.2538 17.297 93.9782 17.297H89.544V43.4121H82.9686Z" fill="white"/>
<path d="M110.656 43.4121V11.8397H122.926C125.274 11.8397 127.279 12.2662 128.939 13.1192C130.61 13.962 131.88 15.1593 132.751 16.7112C133.632 18.2528 134.072 20.0668 134.072 22.1531C134.072 24.2497 133.627 26.0534 132.736 27.5642C131.845 29.0647 130.554 30.2158 128.863 31.0175C127.183 31.8191 125.148 32.2199 122.759 32.2199H114.543V26.8551H121.696C122.951 26.8551 123.994 26.6804 124.824 26.3309C125.654 25.9815 126.272 25.4573 126.677 24.7585C127.092 24.0596 127.299 23.1911 127.299 22.1531C127.299 21.1048 127.092 20.221 126.677 19.5015C126.272 18.7821 125.649 18.2374 124.809 17.8674C123.979 17.4871 122.931 17.297 121.665 17.297H117.231V43.4121H110.656ZM127.451 29.0442L135.181 43.4121H127.922L120.359 29.0442H127.451Z" fill="white"/>
<path d="M145.294 11.8397V43.4121H138.719V11.8397H145.294Z" fill="white"/>
<path d="M150.704 43.4121V11.8397H171.66V17.3433H157.279V24.8664H170.582V30.37H157.279V37.9085H171.721V43.4121H150.704Z" fill="white"/>
<path d="M193.759 20.9198C193.638 19.6762 193.116 18.7102 192.195 18.0216C191.274 17.333 190.023 16.9887 188.444 16.9887C187.371 16.9887 186.465 17.1428 185.726 17.4512C184.987 17.7492 184.42 18.1655 184.025 18.6999C183.64 19.2343 183.448 19.8407 183.448 20.519C183.428 21.0843 183.544 21.5776 183.797 21.999C184.06 22.4203 184.42 22.7852 184.875 23.0935C185.331 23.3916 185.857 23.6536 186.455 23.8797C187.052 24.0956 187.69 24.2806 188.368 24.4347L191.162 25.113C192.519 25.4214 193.764 25.8325 194.898 26.3463C196.032 26.8602 197.014 27.4923 197.844 28.2425C198.674 28.9928 199.317 29.8767 199.773 30.8941C200.238 31.9116 200.476 33.0781 200.486 34.3936C200.476 36.3258 199.99 38.001 199.028 39.4193C198.077 40.8273 196.7 41.9219 194.898 42.703C193.106 43.4738 190.945 43.8592 188.414 43.8592C185.903 43.8592 183.716 43.4686 181.854 42.6875C180.001 41.9064 178.553 40.7502 177.51 39.2189C176.478 37.6773 175.936 35.7708 175.886 33.4995H182.248C182.319 34.558 182.618 35.4419 183.144 36.1511C183.681 36.8499 184.395 37.3792 185.285 37.7389C186.186 38.0884 187.204 38.2631 188.338 38.2631C189.451 38.2631 190.418 38.0986 191.238 37.7698C192.068 37.4409 192.711 36.9835 193.167 36.3977C193.622 35.8119 193.85 35.1387 193.85 34.3782C193.85 33.669 193.643 33.073 193.228 32.5899C192.823 32.1069 192.225 31.6958 191.436 31.3566C190.656 31.0175 189.699 30.7091 188.566 30.4316L185.179 29.5683C182.557 28.9208 180.487 27.9085 178.968 26.5313C177.45 25.1541 176.695 23.2991 176.706 20.9661C176.695 19.0545 177.197 17.3844 178.209 15.9558C179.231 14.5272 180.634 13.4121 182.415 12.6105C184.197 11.8088 186.222 11.408 188.49 11.408C190.798 11.408 192.812 11.8088 194.533 12.6105C196.265 13.4121 197.611 14.5272 198.573 15.9558C199.535 17.3844 200.031 19.039 200.061 20.9198H193.759Z" fill="white"/>
<path d="M203.725 17.3433V11.8397H229.267V17.3433H219.745V43.4121H213.246V17.3433H203.725Z" fill="white"/>
<path d="M260.633 27.6259C260.633 31.0688 259.99 33.9979 258.704 36.4131C257.429 38.8283 255.687 40.6731 253.48 41.9476C251.283 43.2117 248.813 43.8438 246.07 43.8438C243.306 43.8438 240.826 43.2065 238.629 41.9321C236.432 40.6577 234.696 38.8129 233.42 36.3977C232.144 33.9825 231.507 31.0586 231.507 27.6259C231.507 24.1829 232.144 21.2538 233.42 18.8386C234.696 16.4234 236.432 14.5838 238.629 13.3196C240.826 12.0452 243.306 11.408 246.07 11.408C248.813 11.408 251.283 12.0452 253.48 13.3196C255.687 14.5838 257.429 16.4234 258.704 18.8386C259.99 21.2538 260.633 24.1829 260.633 27.6259ZM253.966 27.6259C253.966 25.3957 253.637 23.5149 252.979 21.9835C252.331 20.4522 251.415 19.2908 250.231 18.4995C249.046 17.7081 247.659 17.3124 246.07 17.3124C244.48 17.3124 243.093 17.7081 241.909 18.4995C240.724 19.2908 239.803 20.4522 239.145 21.9835C238.497 23.5149 238.173 25.3957 238.173 27.6259C238.173 29.8561 238.497 31.7369 239.145 33.2682C239.803 34.7996 240.724 35.9609 241.909 36.7523C243.093 37.5437 244.48 37.9393 246.07 37.9393C247.659 37.9393 249.046 37.5437 250.231 36.7523C251.415 35.9609 252.331 34.7996 252.979 33.2682C253.637 31.7369 253.966 29.8561 253.966 27.6259Z" fill="white"/>
<path d="M291.516 11.8397V43.4121H285.837L272.307 23.5406H272.079V43.4121H265.503V11.8397H271.274L284.698 31.6958H284.971V11.8397H291.516Z" fill="white"/>
<path d="M82.7091 63.0509H94.7132L97.5233 65.9037V71.9194L96.0572 73.4078L98.4702 75.8575V81.7181L95.4769 84.757H82.7091V63.0509ZM93.7358 72.8496L95.263 71.2992V66.6169L93.7358 65.0975H84.9695V72.8496H93.7358ZM94.4383 82.7104L96.2099 80.9429V76.6017L94.4383 74.8342H84.9695V82.7104H94.4383Z" fill="white"/>
<path d="M102.15 81.9042V69.3147H104.411V81.191L105.938 82.7104H108.992L112.78 78.8653V69.3147H115.04V84.757H112.841V81.47L109.603 84.757H104.961L102.15 81.9042Z" fill="white"/>
<path d="M119.481 65.7797V64.4153L120.397 63.485H121.741L122.658 64.4153V65.7797L121.741 66.7099H120.397L119.481 65.7797ZM119.939 69.3147H122.199V84.757H119.939V69.3147Z" fill="white"/>
<path d="M127.244 62.6168H129.504V84.757H127.244V62.6168Z" fill="white"/>
<path d="M133.944 81.9042V72.1674L136.755 69.3147H142.619L145.124 71.5473V62.6168H147.384V84.757H145.185V81.9352L142.405 84.757H136.755L133.944 81.9042ZM141.917 82.7104L145.124 79.4545V73.966L142.192 71.3612H137.732L136.205 72.8806V81.191L137.732 82.7104H141.917Z" fill="white"/>
<path d="M159.12 81.9042V75.8575L161.35 73.5938L160.006 72.2295V65.9037L162.816 63.0509H170.238L172.987 65.8417V67.8262H170.727V66.6479L169.261 65.1595H163.732L162.266 66.6479V71.4853L163.793 73.0357H171.613V71.0511H173.873V73.0357H175.859V75.0823H173.873V81.9042L171.063 84.757H161.93L159.12 81.9042ZM170.086 82.6484L171.613 81.0979V75.0823H162.908L161.38 76.6327V81.0979L162.908 82.6484H170.086Z" fill="white"/>
<path d="M186.666 63.0509H188.988V84.757H186.666V63.0509Z" fill="white"/>
<path d="M193.878 69.3147H196.077V72.6016L199.315 69.3147H203.988L206.798 72.1674V84.757H204.538V72.8806L203.011 71.3612H199.926L196.138 75.2063V84.757H193.878V69.3147Z" fill="white"/>
<path d="M211.238 69.3147H213.437V72.6016L216.675 69.3147H221.349L224.159 72.1674V84.757H221.898V72.8806L220.371 71.3612H217.286L213.499 75.2063V84.757H211.238V69.3147Z" fill="white"/>
<path d="M228.293 81.9042V72.1674L231.103 69.3147H238.923L241.733 72.1674V81.9042L238.923 84.757H231.103L228.293 81.9042ZM237.945 82.7104L239.473 81.191V72.8806L237.945 71.3612H232.081L230.553 72.8806V81.191L232.081 82.7104H237.945Z" fill="white"/>
<path d="M243.888 69.3147H246.209L250.73 82.4623H250.852L255.373 69.3147H257.694L252.104 84.757H249.477L243.888 69.3147Z" fill="white"/>
<path d="M259.55 82.2142V78.2762L262.055 75.7645H270.18V72.8186L268.653 71.2992H263.46L261.933 72.8186V74.09H259.672V72.1674L262.483 69.3147H269.6L272.41 72.1674V84.757H270.241V82.0282L267.431 84.757H262.055L259.55 82.2142ZM266.973 82.7724L270.18 79.6405V77.749H263.032L261.811 78.9583V81.5631L263.032 82.7724H266.973Z" fill="white"/>
<path d="M277.908 81.9042V71.3302H275.159V69.3147H277.969V64.2913H280.168V69.3147H284.933V71.3302H280.168V81.191L281.696 82.7414H284.933V84.757H280.718L277.908 81.9042Z" fill="white"/>
<path d="M287.682 81.9042V72.1674L290.493 69.3147H298.159L301 72.1674V77.718H289.943V81.191L291.47 82.7104H297.182L298.709 81.191V80.0126H300.969V81.9042L298.159 84.757H290.493L287.682 81.9042ZM298.74 75.7334V72.8806L297.212 71.3612H291.47L289.943 72.8806V75.7334H298.74Z" fill="white"/>
<path d="M1.12878 64.2135H22.5895V86H1.12878V64.2135Z" fill="#750D0A"/>
<path d="M21.4615 43.5734H42.9222V65.3599H21.4615V43.5734Z" fill="white"/>
<path d="M42.9222 43.5734H64.3818C64.3818 43.5734 59.5881 51.8799 55.3457 56.1866C51.1034 60.4934 42.9222 65.3599 42.9222 65.3599V43.5734Z" fill="white"/>
<path d="M42.9211 21.7865H64.3818V43.5734H42.9222L42.9211 21.7865Z" fill="white"/>
<path d="M42.9211 0C42.9211 0 52.1139 4.06655 56.4752 8.59993C60.6245 12.9129 64.3818 21.7865 64.3818 21.7865H42.9211V0Z" fill="white"/>
<path d="M21.4615 0H42.9211V21.7865L21.4615 21.7865V0Z" fill="white"/>
<path d="M9.03607 9.74659C13.3424 5.31495 21.4615 0 21.4615 0V21.7865H0C0 21.7865 4.94695 13.9547 9.03607 9.74659Z" fill="white"/>
<path d="M0 21.7865H21.4615V43.5734L0 43.573V21.7865Z" fill="#2DFDD0"/>
</svg>
