<svg width="649" height="171" viewBox="0 0 649 171" fill="none" xmlns="http://www.w3.org/2000/svg">
<path d="M53.1074 22L40.4628 39.651H16.438V111.516L82.1901 22H153L102.421 91.3433L151.736 160.687H83.4545L58.1653 125.385L68.281 115.298L91.0413 145.557H123.917L83.4545 91.3433L123.917 37.1295H91.0413L0 161V22H53.1074Z" fill="white"/>
<path d="M187.807 97V24.2727H196.614V60.3523H197.466L230.136 24.2727H241.642L211.102 57.0852L241.642 97H230.989L205.705 63.1932L196.614 73.4205V97H187.807ZM267.041 97V24.2727H275.848V89.1875H309.655V97H267.041ZM395.823 60.6364C395.823 68.3068 394.438 74.9356 391.668 80.5227C388.898 86.1098 385.098 90.4186 380.269 93.4489C375.439 96.4792 369.923 97.9943 363.721 97.9943C357.518 97.9943 352.002 96.4792 347.172 93.4489C342.343 90.4186 338.543 86.1098 335.773 80.5227C333.003 74.9356 331.618 68.3068 331.618 60.6364C331.618 52.9659 333.003 46.3371 335.773 40.75C338.543 35.1629 342.343 30.8542 347.172 27.8239C352.002 24.7936 357.518 23.2784 363.721 23.2784C369.923 23.2784 375.439 24.7936 380.269 27.8239C385.098 30.8542 388.898 35.1629 391.668 40.75C394.438 46.3371 395.823 52.9659 395.823 60.6364ZM387.3 60.6364C387.3 54.339 386.247 49.0241 384.14 44.6918C382.056 40.3594 379.227 37.0805 375.652 34.8551C372.101 32.6297 368.124 31.517 363.721 31.517C359.317 31.517 355.328 32.6297 351.753 34.8551C348.202 37.0805 345.373 40.3594 343.266 44.6918C341.183 49.0241 340.141 54.339 340.141 60.6364C340.141 66.9337 341.183 72.2486 343.266 76.581C345.373 80.9134 348.202 84.1922 351.753 86.4176C355.328 88.643 359.317 89.7557 363.721 89.7557C368.124 89.7557 372.101 88.643 375.652 86.4176C379.227 84.1922 382.056 80.9134 384.14 76.581C386.247 72.2486 387.3 66.9337 387.3 60.6364ZM424.631 97V24.2727H449.205C454.887 24.2727 459.551 25.2434 463.196 27.1847C466.842 29.1023 469.541 31.7419 471.293 35.1037C473.045 38.4654 473.921 42.2888 473.921 46.5739C473.921 50.8589 473.045 54.6586 471.293 57.973C469.541 61.2874 466.854 63.8916 463.232 65.7855C459.61 67.6558 454.981 68.5909 449.347 68.5909H429.461V60.6364H449.063C452.945 60.6364 456.07 60.0682 458.438 58.9318C460.829 57.7955 462.557 56.1856 463.623 54.1023C464.712 51.9953 465.256 49.4858 465.256 46.5739C465.256 43.6619 464.712 41.1169 463.623 38.9389C462.534 36.7609 460.793 35.08 458.402 33.8963C456.011 32.6889 452.851 32.0852 448.921 32.0852H433.438V97H424.631ZM458.864 64.3295L476.762 97H466.534L448.921 64.3295H458.864ZM505.579 97H496.346L523.05 24.2727H532.141L558.846 97H549.613L527.88 35.7784H527.312L505.579 97ZM508.988 68.5909H546.204V76.4034H508.988V68.5909ZM606.617 97H584.174V24.2727H607.612C614.666 24.2727 620.703 25.7287 625.722 28.6406C630.741 31.5289 634.588 35.6837 637.263 41.1051C639.939 46.5028 641.276 52.9659 641.276 60.4943C641.276 68.0701 639.927 74.5923 637.228 80.0611C634.529 85.5062 630.599 89.6965 625.438 92.6321C620.277 95.544 614.004 97 606.617 97ZM592.981 89.1875H606.049C612.062 89.1875 617.046 88.0275 620.999 85.7074C624.953 83.3873 627.9 80.0848 629.842 75.7997C631.783 71.5147 632.754 66.4129 632.754 60.4943C632.754 54.6231 631.795 49.5687 629.877 45.331C627.96 41.0696 625.095 37.8026 621.283 35.5298C617.472 33.2334 612.725 32.0852 607.043 32.0852H592.981V89.1875ZM203.29 130.727C203.077 128.928 202.213 127.531 200.697 126.537C199.182 125.543 197.324 125.045 195.122 125.045C193.512 125.045 192.104 125.306 190.896 125.827C189.701 126.348 188.766 127.064 188.091 127.975C187.428 128.887 187.097 129.922 187.097 131.082C187.097 132.053 187.327 132.888 187.789 133.586C188.263 134.272 188.866 134.847 189.6 135.308C190.334 135.758 191.103 136.131 191.908 136.427C192.713 136.711 193.453 136.942 194.128 137.119L197.821 138.114C198.768 138.362 199.821 138.705 200.982 139.143C202.153 139.581 203.272 140.179 204.337 140.937C205.415 141.683 206.302 142.641 207.001 143.813C207.699 144.985 208.048 146.423 208.048 148.128C208.048 150.093 207.533 151.868 206.504 153.455C205.486 155.041 203.994 156.301 202.029 157.237C200.076 158.172 197.703 158.639 194.909 158.639C192.305 158.639 190.05 158.219 188.144 157.379C186.25 156.538 184.759 155.366 183.67 153.863C182.593 152.36 181.983 150.614 181.841 148.625H186.386C186.505 149.998 186.966 151.134 187.771 152.034C188.588 152.922 189.618 153.585 190.861 154.023C192.116 154.449 193.465 154.662 194.909 154.662C196.59 154.662 198.099 154.39 199.437 153.845C200.774 153.289 201.834 152.519 202.615 151.537C203.396 150.543 203.787 149.383 203.787 148.057C203.787 146.849 203.45 145.867 202.775 145.109C202.1 144.352 201.212 143.736 200.112 143.263C199.011 142.789 197.821 142.375 196.543 142.02L192.068 140.741C189.227 139.925 186.978 138.759 185.321 137.244C183.664 135.728 182.835 133.746 182.835 131.295C182.835 129.259 183.386 127.484 184.487 125.969C185.599 124.442 187.091 123.258 188.961 122.418C190.843 121.565 192.944 121.139 195.264 121.139C197.608 121.139 199.691 121.559 201.514 122.4C203.337 123.228 204.781 124.365 205.847 125.809C206.924 127.253 207.492 128.893 207.551 130.727H203.29ZM220.3 125.543V121.636H247.572V125.543H236.138V158H231.734V125.543H220.3ZM285.232 121.636H289.635V145.713C289.635 148.199 289.049 150.418 287.877 152.371C286.717 154.313 285.078 155.846 282.959 156.97C280.84 158.083 278.355 158.639 275.502 158.639C272.649 158.639 270.163 158.083 268.044 156.97C265.926 155.846 264.28 154.313 263.108 152.371C261.948 150.418 261.368 148.199 261.368 145.713V121.636H265.772V145.358C265.772 147.134 266.162 148.714 266.944 150.099C267.725 151.472 268.837 152.555 270.282 153.348C271.738 154.129 273.478 154.52 275.502 154.52C277.526 154.52 279.266 154.129 280.722 153.348C282.178 152.555 283.291 151.472 284.06 150.099C284.841 148.714 285.232 147.134 285.232 145.358V121.636ZM316.65 158H305.429V121.636H317.148C320.675 121.636 323.693 122.364 326.203 123.82C328.712 125.264 330.636 127.342 331.974 130.053C333.311 132.751 333.98 135.983 333.98 139.747C333.98 143.535 333.305 146.796 331.956 149.531C330.606 152.253 328.641 154.348 326.061 155.816C323.48 157.272 320.344 158 316.65 158ZM309.832 154.094H316.366C319.373 154.094 321.865 153.514 323.841 152.354C325.818 151.194 327.292 149.542 328.263 147.4C329.233 145.257 329.719 142.706 329.719 139.747C329.719 136.812 329.239 134.284 328.28 132.165C327.322 130.035 325.889 128.401 323.983 127.265C322.078 126.117 319.704 125.543 316.863 125.543H309.832V154.094ZM352.77 121.636V158H348.366V121.636H352.77ZM399.281 139.818C399.281 143.653 398.588 146.968 397.203 149.761C395.818 152.555 393.918 154.709 391.504 156.224C389.089 157.74 386.331 158.497 383.229 158.497C380.128 158.497 377.37 157.74 374.955 156.224C372.54 154.709 370.641 152.555 369.256 149.761C367.871 146.968 367.178 143.653 367.178 139.818C367.178 135.983 367.871 132.669 369.256 129.875C370.641 127.081 372.54 124.927 374.955 123.412C377.37 121.897 380.128 121.139 383.229 121.139C386.331 121.139 389.089 121.897 391.504 123.412C393.918 124.927 395.818 127.081 397.203 129.875C398.588 132.669 399.281 135.983 399.281 139.818ZM395.019 139.818C395.019 136.67 394.492 134.012 393.439 131.846C392.397 129.68 390.983 128.04 389.195 126.928C387.42 125.815 385.431 125.259 383.229 125.259C381.028 125.259 379.033 125.815 377.246 126.928C375.47 128.04 374.056 129.68 373.002 131.846C371.96 134.012 371.44 136.67 371.44 139.818C371.44 142.967 371.96 145.624 373.002 147.79C374.056 149.957 375.47 151.596 377.246 152.709C379.033 153.821 381.028 154.378 383.229 154.378C385.431 154.378 387.42 153.821 389.195 152.709C390.983 151.596 392.397 149.957 393.439 147.79C394.492 145.624 395.019 142.967 395.019 139.818Z" fill="white"/>
</svg>
