<svg width="648" height="139" viewBox="0 0 648 139" fill="none" xmlns="http://www.w3.org/2000/svg">
<path d="M53.1074 0L40.4628 17.651H16.438V89.5159L82.1901 0H153L102.421 69.3433L151.736 138.687H83.4545L58.1653 103.385L68.281 93.2983L91.0413 123.557H123.917L83.4545 69.3433L123.917 15.1295H91.0413L0 139V0H53.1074Z" fill="white"/>
<path d="M187.807 106V33.2727H196.614V69.3523H197.466L230.136 33.2727H241.642L211.102 66.0852L241.642 106H230.989L205.705 72.1932L196.614 82.4205V106H187.807ZM267.041 106V33.2727H275.848V98.1875H309.655V106H267.041ZM395.823 69.6364C395.823 77.3068 394.438 83.9356 391.668 89.5227C388.898 95.1098 385.098 99.4186 380.269 102.449C375.439 105.479 369.923 106.994 363.721 106.994C357.518 106.994 352.002 105.479 347.172 102.449C342.343 99.4186 338.543 95.1098 335.773 89.5227C333.003 83.9356 331.618 77.3068 331.618 69.6364C331.618 61.9659 333.003 55.3371 335.773 49.75C338.543 44.1629 342.343 39.8542 347.172 36.8239C352.002 33.7936 357.518 32.2784 363.721 32.2784C369.923 32.2784 375.439 33.7936 380.269 36.8239C385.098 39.8542 388.898 44.1629 391.668 49.75C394.438 55.3371 395.823 61.9659 395.823 69.6364ZM387.3 69.6364C387.3 63.339 386.247 58.0241 384.14 53.6918C382.056 49.3594 379.227 46.0805 375.652 43.8551C372.101 41.6297 368.124 40.517 363.721 40.517C359.317 40.517 355.328 41.6297 351.753 43.8551C348.202 46.0805 345.373 49.3594 343.266 53.6918C341.183 58.0241 340.141 63.339 340.141 69.6364C340.141 75.9337 341.183 81.2486 343.266 85.581C345.373 89.9134 348.202 93.1922 351.753 95.4176C355.328 97.643 359.317 98.7557 363.721 98.7557C368.124 98.7557 372.101 97.643 375.652 95.4176C379.227 93.1922 382.056 89.9134 384.14 85.581C386.247 81.2486 387.3 75.9337 387.3 69.6364ZM424.631 106V33.2727H449.205C454.887 33.2727 459.551 34.2434 463.196 36.1847C466.842 38.1023 469.541 40.7419 471.293 44.1037C473.045 47.4654 473.921 51.2888 473.921 55.5739C473.921 59.8589 473.045 63.6586 471.293 66.973C469.541 70.2874 466.854 72.8916 463.232 74.7855C459.61 76.6558 454.981 77.5909 449.347 77.5909H429.461V69.6364H449.063C452.945 69.6364 456.07 69.0682 458.438 67.9318C460.829 66.7955 462.557 65.1856 463.623 63.1023C464.712 60.9953 465.256 58.4858 465.256 55.5739C465.256 52.6619 464.712 50.1169 463.623 47.9389C462.534 45.7609 460.793 44.08 458.402 42.8963C456.011 41.6889 452.851 41.0852 448.921 41.0852H433.438V106H424.631ZM458.864 73.3295L476.762 106H466.534L448.921 73.3295H458.864ZM505.579 106H496.346L523.05 33.2727H532.141L558.846 106H549.613L527.88 44.7784H527.312L505.579 106ZM508.988 77.5909H546.204V85.4034H508.988V77.5909ZM606.617 106H584.174V33.2727H607.612C614.666 33.2727 620.703 34.7287 625.722 37.6406C630.741 40.5289 634.588 44.6837 637.263 50.1051C639.939 55.5028 641.276 61.9659 641.276 69.4943C641.276 77.0701 639.927 83.5923 637.228 89.0611C634.529 94.5062 630.599 98.6965 625.438 101.632C620.277 104.544 614.004 106 606.617 106ZM592.981 98.1875H606.049C612.062 98.1875 617.046 97.0275 620.999 94.7074C624.953 92.3873 627.9 89.0848 629.842 84.7997C631.783 80.5147 632.754 75.4129 632.754 69.4943C632.754 63.6231 631.795 58.5687 629.877 54.331C627.96 50.0696 625.095 46.8026 621.283 44.5298C617.472 42.2334 612.725 41.0852 607.043 41.0852H592.981V98.1875Z" fill="white"/>
</svg>
