<svg width="649" height="106" viewBox="0 0 649 106" fill="none" xmlns="http://www.w3.org/2000/svg">
<path d="M40.2645 0L30.6777 13.4605H12.4628V68.264L62.3141 0H116L77.6529 52.8805L115.041 105.761H63.2727L44.0992 78.8401L51.7686 71.1484L69.0248 94.2235H93.9504L63.2727 52.8805L93.9504 11.5376H69.0248L0 106V0H40.2645Z" fill="white"/>
<path d="M139.392 93.5538V11.823H149.289V52.3691H150.246L186.961 11.823H199.892L165.571 48.6976L199.892 93.5538H187.919L159.505 55.5617L149.289 67.0551V93.5538H139.392Z" fill="white"/>
<path d="M228.435 93.5538V11.823H238.332V84.7741H276.324V93.5538H228.435Z" fill="white"/>
<path d="M373.16 52.6884C373.16 61.3084 371.603 68.7578 368.49 75.0366C365.378 81.3154 361.107 86.1576 355.68 89.563C350.253 92.9685 344.054 94.6712 337.083 94.6712C330.113 94.6712 323.914 92.9685 318.486 89.563C313.059 86.1576 308.789 81.3154 305.676 75.0366C302.563 68.7578 301.007 61.3084 301.007 52.6884C301.007 44.0683 302.563 36.6189 305.676 30.3401C308.789 24.0613 313.059 19.2192 318.486 15.8137C323.914 12.4083 330.113 10.7056 337.083 10.7056C344.054 10.7056 350.253 12.4083 355.68 15.8137C361.107 19.2192 365.378 24.0613 368.49 30.3401C371.603 36.6189 373.16 44.0683 373.16 52.6884ZM363.582 52.6884C363.582 45.6114 362.398 39.6386 360.03 34.7699C357.689 29.9011 354.509 26.2163 350.492 23.7155C346.501 21.2146 342.032 19.9641 337.083 19.9641C332.135 19.9641 327.652 21.2146 323.634 23.7155C319.643 26.2163 316.464 29.9011 314.096 34.7699C311.755 39.6386 310.584 45.6114 310.584 52.6884C310.584 59.7653 311.755 65.7382 314.096 70.6069C316.464 75.4756 319.643 79.1604 323.634 81.6613C327.652 84.1622 332.135 85.4126 337.083 85.4126C342.032 85.4126 346.501 84.1622 350.492 81.6613C354.509 79.1604 357.689 75.4756 360.03 70.6069C362.398 65.7382 363.582 59.7653 363.582 52.6884Z" fill="white"/>
<path d="M405.534 93.5538V11.823H433.15C439.535 11.823 444.777 12.9138 448.874 15.0954C452.971 17.2504 456.004 20.2169 457.973 23.9948C459.942 27.7727 460.926 32.0694 460.926 36.885C460.926 41.7005 459.942 45.9706 457.973 49.6953C456.004 53.42 452.984 56.3466 448.914 58.475C444.843 60.5768 439.642 61.6277 433.31 61.6277H410.962V52.6884H432.991C437.354 52.6884 440.866 52.0499 443.526 50.7728C446.213 49.4958 448.156 47.6866 449.353 45.3454C450.577 42.9775 451.189 40.1574 451.189 36.885C451.189 33.6125 450.577 30.7525 449.353 28.3048C448.129 25.8572 446.173 23.9682 443.486 22.6379C440.799 21.2811 437.247 20.6027 432.831 20.6027H415.431V93.5538H405.534ZM444.005 56.8388L464.119 93.5538H452.625L432.831 56.8388H444.005Z" fill="white"/>
<path d="M496.503 93.5538H486.127L516.138 11.823H526.354L556.365 93.5538H545.989L521.565 24.753H520.927L496.503 93.5538ZM500.334 61.6277H542.158V70.4074H500.334V61.6277Z" fill="white"/>
<path d="M610.05 93.5538H584.828V11.823H611.167C619.096 11.823 625.88 13.4592 631.52 16.7316C637.16 19.9774 641.484 24.6466 644.49 30.7392C647.497 36.8051 649 44.0683 649 52.5287C649 61.0424 647.483 68.3721 644.45 74.5178C641.417 80.637 637.001 85.3461 631.201 88.6451C625.401 91.9176 618.351 93.5538 610.05 93.5538ZM594.725 84.7741H609.411C616.169 84.7741 621.769 83.4705 626.212 80.8632C630.656 78.2559 633.968 74.5445 636.149 69.7289C638.331 64.9134 639.422 59.18 639.422 52.5287C639.422 45.9307 638.344 40.2505 636.189 35.4882C634.034 30.6993 630.815 27.0278 626.532 24.4737C622.248 21.893 616.914 20.6027 610.529 20.6027H594.725V84.7741Z" fill="white"/>
</svg>
