<svg width="649" height="171" viewBox="0 0 649 171" fill="none" xmlns="http://www.w3.org/2000/svg">
<path d="M53.1074 22L40.4628 39.651H16.438V111.516L82.1901 22H153L102.421 91.3433L151.736 160.687H83.4545L58.1653 125.385L68.281 115.298L91.0413 145.557H123.917L83.4545 91.3433L123.917 37.1295H91.0413L0 161V22H53.1074Z" fill="black"/>
<path d="M187.807 97V24.2727H196.614V60.3523H197.466L230.136 24.2727H241.642L211.102 57.0852L241.642 97H230.989L205.705 63.1932L196.614 73.4205V97H187.807ZM267.041 97V24.2727H275.848V89.1875H309.655V97H267.041ZM395.823 60.6364C395.823 68.3068 394.438 74.9356 391.668 80.5227C388.898 86.1098 385.098 90.4186 380.269 93.4489C375.439 96.4792 369.923 97.9943 363.721 97.9943C357.518 97.9943 352.002 96.4792 347.172 93.4489C342.343 90.4186 338.543 86.1098 335.773 80.5227C333.003 74.9356 331.618 68.3068 331.618 60.6364C331.618 52.9659 333.003 46.3371 335.773 40.75C338.543 35.1629 342.343 30.8542 347.172 27.8239C352.002 24.7936 357.518 23.2784 363.721 23.2784C369.923 23.2784 375.439 24.7936 380.269 27.8239C385.098 30.8542 388.898 35.1629 391.668 40.75C394.438 46.3371 395.823 52.9659 395.823 60.6364ZM387.3 60.6364C387.3 54.339 386.247 49.0241 384.14 44.6918C382.056 40.3594 379.227 37.0805 375.652 34.8551C372.101 32.6297 368.124 31.517 363.721 31.517C359.317 31.517 355.328 32.6297 351.753 34.8551C348.202 37.0805 345.373 40.3594 343.266 44.6918C341.183 49.0241 340.141 54.339 340.141 60.6364C340.141 66.9337 341.183 72.2486 343.266 76.581C345.373 80.9134 348.202 84.1922 351.753 86.4176C355.328 88.643 359.317 89.7557 363.721 89.7557C368.124 89.7557 372.101 88.643 375.652 86.4176C379.227 84.1922 382.056 80.9134 384.14 76.581C386.247 72.2486 387.3 66.9337 387.3 60.6364ZM424.631 97V24.2727H449.205C454.887 24.2727 459.551 25.2434 463.196 27.1847C466.842 29.1023 469.541 31.7419 471.293 35.1037C473.045 38.4654 473.921 42.2888 473.921 46.5739C473.921 50.8589 473.045 54.6586 471.293 57.973C469.541 61.2874 466.854 63.8916 463.232 65.7855C459.61 67.6558 454.981 68.5909 449.347 68.5909H429.461V60.6364H449.063C452.945 60.6364 456.07 60.0682 458.438 58.9318C460.829 57.7955 462.557 56.1856 463.623 54.1023C464.712 51.9953 465.256 49.4858 465.256 46.5739C465.256 43.6619 464.712 41.1169 463.623 38.9389C462.534 36.7609 460.793 35.08 458.402 33.8963C456.011 32.6889 452.851 32.0852 448.921 32.0852H433.438V97H424.631ZM458.864 64.3295L476.762 97H466.534L448.921 64.3295H458.864ZM505.579 97H496.346L523.05 24.2727H532.141L558.846 97H549.613L527.88 35.7784H527.312L505.579 97ZM508.988 68.5909H546.204V76.4034H508.988V68.5909ZM606.617 97H584.174V24.2727H607.612C614.666 24.2727 620.703 25.7287 625.722 28.6406C630.741 31.5289 634.588 35.6837 637.263 41.1051C639.939 46.5028 641.276 52.9659 641.276 60.4943C641.276 68.0701 639.927 74.5923 637.228 80.0611C634.529 85.5062 630.599 89.6965 625.438 92.6321C620.277 95.544 614.004 97 606.617 97ZM592.981 89.1875H606.049C612.062 89.1875 617.046 88.0275 620.999 85.7074C624.953 83.3873 627.9 80.0848 629.842 75.7997C631.783 71.5147 632.754 66.4129 632.754 60.4943C632.754 54.6231 631.795 49.5687 629.877 45.331C627.96 41.0696 625.095 37.8026 621.283 35.5298C617.472 33.2334 612.725 32.0852 607.043 32.0852H592.981V89.1875ZM184.895 121.636L195.69 152.247H196.116L206.912 121.636H211.528L198.176 158H193.631L180.278 121.636H184.895ZM228.596 121.636V158H224.192V121.636H228.596ZM244.425 158V121.636H266.371V125.543H248.828V137.83H265.235V141.736H248.828V154.094H266.655V158H244.425ZM287.913 158L277.97 121.636H282.444L290.044 151.253H290.399L298.14 121.636H303.112L310.853 151.253H311.208L318.808 121.636H323.282L313.339 158H308.794L300.768 129.023H300.484L292.458 158H287.913ZM335.769 158V121.636H357.715V125.543H340.172V137.83H356.578V141.736H340.172V154.094H357.999V158H335.769ZM372.651 158V121.636H384.938C387.779 121.636 390.111 122.122 391.934 123.092C393.757 124.051 395.106 125.371 395.982 127.052C396.858 128.733 397.296 130.644 397.296 132.787C397.296 134.929 396.858 136.829 395.982 138.487C395.106 140.144 393.763 141.446 391.952 142.393C390.141 143.328 387.827 143.795 385.009 143.795H375.066V139.818H384.867C386.809 139.818 388.371 139.534 389.555 138.966C390.75 138.398 391.615 137.593 392.147 136.551C392.692 135.498 392.964 134.243 392.964 132.787C392.964 131.331 392.692 130.058 392.147 128.969C391.603 127.88 390.733 127.04 389.537 126.448C388.342 125.844 386.761 125.543 384.796 125.543H377.055V158H372.651ZM389.768 141.665L398.717 158H393.603L384.796 141.665H389.768Z" fill="black"/>
</svg>
