<svg width="350" height="142" viewBox="0 0 350 142" fill="none" xmlns="http://www.w3.org/2000/svg">
<path d="M0 1.63756H15.9311V35.9094H28.348L48.1447 1.63756H66.0672L42.0534 42.4596L68.0586 83.5156H49.7847L28.2309 49.4778H15.9311V83.5156H0V1.63756Z" fill="url(#paint0_linear_281_594)"/>
<path d="M76.3015 0H91.764V83.5156H76.3015V0Z" fill="url(#paint1_linear_281_594)"/>
<path d="M105.202 71.3509V37.43L117.268 25.2652H150.77L162.835 37.43V71.3509L150.77 83.5156H117.268L105.202 71.3509ZM143.273 70.6491L147.373 66.5552V42.2257L143.273 38.1318H124.765L120.665 42.2257V66.5552L124.765 70.6491H143.273Z" fill="url(#paint2_linear_281_594)"/>
<path d="M175.697 25.2652H189.988V34.9736L199.359 25.2652H215.993V38.3657H202.522L191.16 50.0626V83.5156H175.697V25.2652Z" fill="url(#paint3_linear_281_594)"/>
<path d="M218.897 72.7545V59.4201L229.674 48.659H259.311V41.29L255.679 37.6639H238.108L234.594 41.29V44.5651H219.366V37.8979L231.9 25.2652H262.005L274.539 37.8979V83.5156H260.599V75.2109L251.931 83.5156H229.674L218.897 72.7545ZM250.877 71.5848L259.311 63.514V59.654H237.288L234.125 62.8122V68.6606L237.054 71.5848H250.877Z" fill="url(#paint4_linear_281_594)"/>
<path d="M286.862 71.3509V37.43L298.927 25.2652H322.121L329.032 31.2306V0H344.495V83.5156H329.969V74.5091L320.949 83.5156H298.927L286.862 71.3509ZM319.544 70.4152L329.032 60.7068V45.5008L321.067 38.3657H306.775L302.324 42.9275V65.8534L306.775 70.4152H319.544Z" fill="url(#paint5_linear_281_594)"/>
<path d="M151.584 135.344V131.201H160.426V133.103L161.922 134.665H172.941L174.437 133.103V130.182L172.873 128.552H158.249L151.856 122.1V114.697L158.317 108.177H176.002L182.599 114.833V118.976H173.757V117.074L172.261 115.512H162.194L160.698 117.074V119.723L162.262 121.353H176.886L183.28 127.805V135.48L176.818 142H158.181L151.584 135.344Z" fill="#262934"/>
<path d="M192.811 135.072V115.716H186.689V108.177H192.947V97.1746H201.789V108.177H212.128V115.784H201.789V132.152L204.102 134.393H212.128V142H199.817L192.811 135.072Z" fill="#262934"/>
<path d="M217.241 134.869V108.177H226.22V132.084L228.532 134.393H233.974L240.639 127.737V108.177H249.617V142H241.319V136.227L235.47 142H224.383L217.241 134.869Z" fill="#262934"/>
<path d="M257.087 134.937V115.241L264.093 108.177H277.56L281.573 111.641V93.507H290.551V142H282.117V136.77L276.88 142H264.093L257.087 134.937ZM276.064 134.393L281.573 128.756V119.927L276.948 115.784H268.65L266.065 118.433V131.744L268.65 134.393H276.064Z" fill="#262934"/>
<path d="M298.344 101.114V96.7671L301.473 93.6429H306.234L309.362 96.7671V101.114L306.234 104.238H301.473L298.344 101.114ZM299.364 108.177H308.342V142H299.364V108.177Z" fill="#262934"/>
<path d="M316.536 134.937V115.241L323.541 108.177H342.994L350 115.241V134.937L342.994 142H323.541L316.536 134.937ZM338.641 134.529L341.022 132.152V118.025L338.641 115.648H327.894L325.514 118.025V132.152L327.894 134.529H338.641Z" fill="#262934"/>
<defs>
<linearGradient id="paint0_linear_281_594" x1="19" y1="71" x2="350" y2="71" gradientUnits="userSpaceOnUse">
<stop stop-color="#0431AD"/>
<stop offset="1" stop-color="#4763B1"/>
</linearGradient>
<linearGradient id="paint1_linear_281_594" x1="19" y1="71" x2="350" y2="71" gradientUnits="userSpaceOnUse">
<stop stop-color="#0431AD"/>
<stop offset="1" stop-color="#4763B1"/>
</linearGradient>
<linearGradient id="paint2_linear_281_594" x1="19" y1="71" x2="350" y2="71" gradientUnits="userSpaceOnUse">
<stop stop-color="#0431AD"/>
<stop offset="1" stop-color="#4763B1"/>
</linearGradient>
<linearGradient id="paint3_linear_281_594" x1="19" y1="71" x2="350" y2="71" gradientUnits="userSpaceOnUse">
<stop stop-color="#0431AD"/>
<stop offset="1" stop-color="#4763B1"/>
</linearGradient>
<linearGradient id="paint4_linear_281_594" x1="19" y1="71" x2="350" y2="71" gradientUnits="userSpaceOnUse">
<stop stop-color="#0431AD"/>
<stop offset="1" stop-color="#4763B1"/>
</linearGradient>
<linearGradient id="paint5_linear_281_594" x1="19" y1="71" x2="350" y2="71" gradientUnits="userSpaceOnUse">
<stop stop-color="#0431AD"/>
<stop offset="1" stop-color="#4763B1"/>
</linearGradient>
</defs>
</svg>
